<?xml version="1.0" encoding="utf-8"?>
<!-- Generator: Adobe Illustrator 25.2.0, SVG Export Plug-In . SVG Version: 6.00 Build 0)  -->
<svg version="1.1" id="mdi-yeast" xmlns="http://www.w3.org/2000/svg" xmlns:xlink="http://www.w3.org/1999/xlink" x="0px" y="0px"
	 viewBox="0 0 560.2 571.8" style="enable-background:new 0 0 560.2 571.8;" xml:space="preserve">
<style type="text/css">
	.st0{fill:#FFFFFF;}
</style>
<path d="M462.8,374.8c53.8,0,97.4,43.6,97.4,97.4c0,53.8-43.6,97.4-97.4,97.4s-97.4-43.6-97.4-97.4l2.2-20.7
	c-1-17-4.1-31.9-13.2-40.2c-4.9-4.9-11.7-7.6-19.5-9c-23.4,13.4-50.4,21.2-79.2,21.2c-87.4,0-158.3-70.9-158.3-158.3
	s70.9-158.3,158.3-158.3s158.3,70.9,158.3,158.3c0,28.7-7.8,55.8-21.2,79.2c1.5,7.8,4.1,14.6,9,19.5c8.3,9,23.1,12.2,40.2,13.2
	L462.8,374.8 M207.1,277.3c20.2,0,36.5,16.4,36.5,36.5s-16.4,36.5-36.5,36.5s-36.5-16.4-36.5-36.5S186.9,277.3,207.1,277.3
	 M255.8,155.6c-60.9,0-109.6,48.7-109.6,109.6s48.7,109.6,109.6,109.6S365.4,326,365.4,265.2S316.7,155.6,255.8,155.6z"/>
<g>
	<path d="M461.1,173.9c-4.8-1.9-9.9-3.7-15-4.5c-21.1-3.1-42.1-6.4-63.3-8.4c-7.3-0.7-10-2.9-11.6-10c-5.1-23.4-10.9-46.6-16.7-69.8
		c-3.1-12.4-9.4-23.7-20.9-29.4c-31.4-15.7-62.4-32.9-95.3-44.5c-41.9-14.7-90.9,15.5-101.8,58.8c-8.8,34.8-17.8,69.5-25.8,104.5
		c-2,8.8-6.3,12-14.3,14.4c-26.5,7.8-52.9,16.2-79.2,24.8c-5.6,1.8-10.6,5.6-15.8,8.4c0.1,1.4,0.2,2.8,0.4,4.2
		c12.8,6.3,26.1,11,39.6,15c66.2-9,132.4-14,198.6-16.8c23.1-0.6,41-2.8,60.9-3.5c0.7,0,1.1,0,1.6-0.1c-4,0-8,0-12,0c4,0,8,0,12,0
		c3.3-0.1,4.2-0.1,4.7,0c53.3-0.1,106.7-1.7,160-16.3C479.5,189.6,477,180.2,461.1,173.9z M156.8,58.9c4.2-11.9,16.8-20.9,26.7-32.5
		c29.9,35.1,63.9,59.4,103.2,76.2c-0.5,1-1,2-1.5,3.1c-14.8-6.6-30-12.5-44.4-20c-14.4-7.5-28.1-16.6-43.5-25.9
		c14.3,34.2,38.8,57.3,67.1,75.8c-43.3,3.7-86.4,7.4-131.9,11.3C140.2,118.2,146.6,87.9,156.8,58.9z M419,178.8
		c-79.8-3.1-157.9,9.8-236.1,22.9c-47.5,7.9-95.7,11.5-143.5,17c-2.4,0.3-4.9,0-7.3,0c127.8-43.7,259.5-48.4,392.2-43.5
		c0.1,0.9,0.2,1.8,0.4,2.8C422.7,178.3,420.8,178.9,419,178.8z"/>
	<path class="st0" d="M132.5,147c7.7-28.8,14-59.1,24.3-88.1c4.2-11.9,16.8-20.9,26.7-32.5c29.9,35.1,63.9,59.4,103.2,76.2
		c-0.5,1-1,2-1.5,3.1c-14.8-6.6-30-12.5-44.4-20c-14.4-7.5-28.1-16.6-43.5-25.9c14.3,34.2,38.8,57.3,67.1,75.8
		C221.1,139.4,177.9,143.1,132.5,147z"/>
	<path class="st0" d="M419,178.8c1.8,0.1,3.7-0.5,5.6-0.8c-0.1-0.9-0.2-1.8-0.4-2.8c-132.7-4.9-264.4-0.2-392.2,43.5
		c2.4,0,4.9,0.2,7.3,0c47.9-5.5,96.1-9.1,143.5-17C261.1,188.6,339.2,175.7,419,178.8z"/>
</g>
</svg>
