<?xml version="1.0" encoding="utf-8"?>
<!-- Generator: Adobe Illustrator 25.2.0, SVG Export Plug-In . SVG Version: 6.00 Build 0)  -->
<svg version="1.1" id="mdi-yeast" xmlns="http://www.w3.org/2000/svg" xmlns:xlink="http://www.w3.org/1999/xlink" x="0px" y="0px"
	 viewBox="0 0 38.7 32.8" style="enable-background:new 0 0 38.7 32.8;" xml:space="preserve">
<style type="text/css">
	.st0{fill:#FFFFFF;}
</style>
<path d="M27,21.1c2.5,0,4.5,2,4.5,4.5s-2,4.5-4.5,4.5s-4.5-2-4.5-4.5l0.1-1c0-0.8-0.2-1.5-0.6-1.9c-0.2-0.2-0.5-0.3-0.9-0.4
	c-1.1,0.6-2.3,1-3.7,1c-4,0-7.3-3.3-7.3-7.3s3.3-7.3,7.3-7.3s7.3,3.3,7.3,7.3c0,1.3-0.4,2.6-1,3.7c0.1,0.4,0.2,0.7,0.4,0.9
	c0.4,0.4,1.1,0.6,1.9,0.6L27,21.1 M15.2,16.6c0.9,0,1.7,0.8,1.7,1.7S16.1,20,15.2,20s-1.7-0.8-1.7-1.7S14.2,16.6,15.2,16.6 M17.4,11
	c-2.8,0-5.1,2.3-5.1,5.1s2.3,5.1,5.1,5.1s5.1-2.3,5.1-5.1S20.2,11,17.4,11z"/>
<g>
	<path d="M26.9,11.8c-0.2-0.1-0.5-0.2-0.7-0.2c-1-0.1-1.9-0.3-2.9-0.4c-0.3,0-0.5-0.1-0.5-0.5c-0.2-1.1-0.5-2.2-0.8-3.2
		c-0.1-0.6-0.4-1.1-1-1.4c-1.4-0.7-2.9-1.5-4.4-2.1c-1.9-0.7-4.2,0.7-4.7,2.7c-0.4,1.6-0.8,3.2-1.2,4.8c-0.1,0.4-0.3,0.6-0.7,0.7
		c-1.2,0.4-2.4,0.7-3.7,1.1c-0.3,0.1-0.5,0.3-0.7,0.4c0,0.1,0,0.1,0,0.2c0.6,0.3,1.2,0.5,1.8,0.7c3.1-0.4,6.1-0.6,9.2-0.8
		c1.1,0,1.9-0.1,2.8-0.2c0,0,0,0,0.1,0c-0.2,0-0.4,0-0.6,0c0.2,0,0.4,0,0.6,0c0.2,0,0.2,0,0.2,0c2.5,0,4.9-0.1,7.4-0.8
		C27.8,12.6,27.6,12.1,26.9,11.8z M12.8,6.5C13,6,13.6,5.5,14.1,5c1.4,1.6,3,2.7,4.8,3.5c0,0,0,0.1-0.1,0.1c-0.7-0.3-1.4-0.6-2-0.9
		c-0.7-0.3-1.3-0.8-2-1.2c0.7,1.6,1.8,2.6,3.1,3.5c-2,0.2-4,0.3-6.1,0.5C12.1,9.2,12.4,7.8,12.8,6.5z M25,12.1
		c-3.7-0.1-7.3,0.5-10.9,1.1c-2.2,0.4-4.4,0.5-6.6,0.8c-0.1,0-0.2,0-0.3,0c5.9-2,12-2.2,18.1-2c0,0,0,0.1,0,0.1
		C25.1,12,25,12.1,25,12.1z"/>
	<path class="st0" d="M11.7,10.6c0.4-1.3,0.6-2.7,1.1-4.1C13,6,13.6,5.5,14.1,5c1.4,1.6,3,2.7,4.8,3.5c0,0,0,0.1-0.1,0.1
		c-0.7-0.3-1.4-0.6-2-0.9c-0.7-0.3-1.3-0.8-2-1.2c0.7,1.6,1.8,2.6,3.1,3.5C15.8,10.2,13.8,10.4,11.7,10.6z"/>
	<path class="st0" d="M25,12.1c0.1,0,0.2,0,0.3,0c0,0,0-0.1,0-0.1c-6.1-0.2-12.2,0-18.1,2c0.1,0,0.2,0,0.3,0
		c2.2-0.3,4.4-0.4,6.6-0.8C17.7,12.5,21.3,11.9,25,12.1z"/>
</g>
</svg>
