<?xml version="1.0" encoding="utf-8"?>
<!-- Generator: Adobe Illustrator 16.0.3, SVG Export Plug-In . SVG Version: 6.00 Build 0)  -->
<!DOCTYPE svg PUBLIC "-//W3C//DTD SVG 1.1//EN" "http://www.w3.org/Graphics/SVG/1.1/DTD/svg11.dtd">
<svg version="1.1" id="Layer_1" xmlns="http://www.w3.org/2000/svg" xmlns:xlink="http://www.w3.org/1999/xlink" x="0px" y="0px"
	 width="107px" height="156px" viewBox="39.5 8.5 107 156" enable-background="new 39.5 8.5 107 156" xml:space="preserve">
<path fill="#FF9A00" stroke="#000000" stroke-miterlimit="10" d="M133,55h-13l0.1-1.7c0-2.3-0.199-4.6-1.6-5.4
	c-4.9-2.8-10.4-4.7-16-5.7v-16c-0.011-3.309-2.691-5.989-6-6H80.7c-3.31,0.011-5.989,2.691-6,6v16.2c-5.6,0.9-11,2.8-16,5.7
	c-1.4,0.9-1.6,3.2-1.6,5l1.9,51.6c0,0.8,0.2,1.6,0.5,2.3c-2.2,0.7-3.7,2.9-3.5,5.2l-1.6,38.5c-0.2,2.7,1.8,5.1,4.5,5.3h59.3
	c2.7-0.3,4.8-2.6,4.6-5.4l-1.5-38.5c0.101-2.3-1.3-4.5-3.5-5.199c0.3-0.7,0.5-1.5,0.5-2.2V104h4.5c8,0,14.7-8.6,14.7-18.8V60.1
	C137.5,57.5,135.6,55.3,133,55z M95.9,100.5v-5.2h12.5c0.199,0,0.399-0.2,0.5-0.399V93c0-0.2-0.2-0.4-0.4-0.5l-12.6-2.7V54.4h21.3
	l-1.7,50.4c0,1.2-0.7,2.2-1.5,2.2H97.8v-3.2C97.8,102.4,97.1,101.2,95.9,100.5z M81.8,101.2c0.2-0.101,0.3-0.2,0.3-0.4V54.4h13v46.3
	c0,0.2,0.101,0.399,0.301,0.399c1,0.5,1.6,1.5,1.6,2.601v3.2H80.3v-3.2C80.3,102.7,80.9,101.7,81.8,101.2z M81.1,99H69v-1l12.1-2.6
	V99z M96,94.3v-3.6l12.1,2.6v1H96z M77.3,26.2L77.3,26.2c0.1-1.8,1.6-3.2,3.3-3.2h15.8c1.8,0,3.199,1.5,3.199,3.2v15.7
	c-7.393-1.1-14.907-1.1-22.3,0V26.2z M60.2,50.3c6.2-3.9,17.6-6.5,28.3-6.5s22.1,2.6,28.3,6.5c0.2,0.4,0.3,0.9,0.3,1.4H59.9
	C59.9,51.2,60,50.7,60.2,50.3z M81.1,54.4v40L68.5,97.1c-0.2,0-0.4,0.301-0.4,0.5v1.9c0,0.2,0.2,0.4,0.4,0.5H81v0.6
	c-1.1,0.7-1.8,2-1.9,3.301v3.199H63.2c-0.8,0-1.5-1-1.5-2.199l-1.8-50.2L81.1,54.4z M120,150.8c0,1.4-0.8,2.5-1.8,2.5H58.9
	c-0.9,0-1.8-1.1-1.8-2.5l0.3-6.2h62.3L120,150.8z M118.4,112.3l1.199,31.4H57.4l1.2-31.4c0-1.5,0.8-2.5,1.7-2.5H117
	C117.6,109.7,118.4,110.8,118.4,112.3z M134.5,85.3c0,8.5-5.6,16-11.9,16h-4.3l0.7-17.2l1-26.3h13c0.8,0,1.5,1,1.5,2.2V85.3z
	 M128.8,60.6h-5c-0.5,0-0.899,0.4-0.899,0.8L121,97.2c0,0.2,0,0.5,0.2,0.7c0.2,0.199,0.5,0.3,0.7,0.399c5.399,0,9.1-6.399,9.1-15.5
	V63.2C131.2,61.9,130.2,60.7,128.8,60.6z M129.2,82.8c0,7.2-2.601,12.7-6.3,13.601c0.199-2.5,0.6-10.2,1.8-33.9h4.1
	c0.2,0,0.4,0.3,0.4,0.7V82.8z M106.4,126.8H70.6c-1.1,0-1.9,0.8-2,1.9v8.3c0,1.1,0.8,1.9,1.9,2h36c1.1,0,1.9-0.8,2-1.9v-8.3
	C108.4,127.7,107.5,126.8,106.4,126.8z M81.5,138H70.6c-0.6,0-1-0.5-1-1v-8.2c0-0.6,0.5-1,1-1h10.9V138z M94.5,138H82.4v-10.2h12.1
	V138z M107.5,136.9c0,0.6-0.5,1-1,1H95.4v-10.2h11.1c0.6,0,1,0.5,1,1V136.9z"/>
</svg>
